<?xml version="1.0" encoding="UTF-8" standalone="no"?>
<!DOCTYPE svg
  PUBLIC '-//W3C//DTD SVG 1.1//EN'
  'http://www.w3.org/Graphics/SVG/1.1/DTD/svg11.dtd'>
<svg height="100%" style="fill-rule:evenodd;clip-rule:evenodd;stroke-linejoin:round;stroke-miterlimit:2;" version="1.1" viewBox="0 0 120 120" width="100%" xml:space="preserve" xmlns="http://www.w3.org/2000/svg" xmlns:serif="http://www.serif.com/" xmlns:xlink="http://www.w3.org/1999/xlink">
  <!-- <path d="M120,12c0,-6.623 -5.377,-12 -12,-12l-96,0c-6.623,0 -12,5.377 -12,12l0,96c0,6.623 5.377,12 12,12l96,0c6.623,0 12,-5.377 12,-12l0,-96Z" id="Background" style="fill:#383838;"/> -->
  <g id="Orange" style="fill:orange;">
    <path d="M30.703,69.041c-2.564,-4.72 -4.021,-10.127 -4.021,-15.872c0,-18.389 14.929,-33.318 33.318,-33.318c18.389,0 33.318,14.929 33.318,33.318c0,5.745 -1.457,11.152 -4.021,15.872l-58.594,0Z" />
    <path d="M45.943,71.518c-4.384,-4.031 -7.149,-9.913 -7.149,-16.46c0,-12.136 9.502,-21.99 21.206,-21.99c11.704,0 21.206,9.854 21.206,21.99c0,6.547 -2.765,12.429 -7.149,16.46l-28.114,0Z" style="fill:#fff;"/>
    <path d="M62.925,13.408c2.976,-5.039 7.358,-7.968 9.779,-6.538c2.422,1.43 1.971,6.682 -1.005,11.721c-2.976,5.038 -7.358,7.968 -9.78,6.538c-2.421,-1.431 -1.971,-6.683 1.006,-11.721Z" />
    <path d="M54.497,17.464c-1.382,-3.164 -1.19,-6.306 0.427,-7.012c1.617,-0.706 4.051,1.289 5.433,4.453c1.381,3.163 1.19,6.305 -0.427,7.011c-1.617,0.706 -4.052,-1.289 -5.433,-4.452Z" />
  </g>
  <g id="texts" style="fill:#555555;">
    <g>
      <path d="M11.71,80.549c0,-2.337 0.651,-4.157 1.953,-5.459c1.302,-1.302 3.116,-1.953 5.44,-1.953c2.383,0 4.218,0.639 5.508,1.919c1.289,1.279 1.933,3.071 1.933,5.376c0,1.673 -0.281,3.045 -0.845,4.116c-0.563,1.071 -1.377,1.904 -2.441,2.5c-1.064,0.595 -2.391,0.893 -3.979,0.893c-1.615,0 -2.951,-0.257 -4.009,-0.771c-1.058,-0.514 -1.916,-1.328 -2.574,-2.442c-0.657,-1.113 -0.986,-2.506 -0.986,-4.179Zm4.424,0.019c0,1.446 0.269,2.484 0.806,3.116c0.537,0.631 1.268,0.947 2.192,0.947c0.951,0 1.686,-0.309 2.207,-0.928c0.521,-0.618 0.781,-1.728 0.781,-3.33c0,-1.348 -0.272,-2.332 -0.815,-2.954c-0.544,-0.622 -1.281,-0.933 -2.212,-0.933c-0.892,0 -1.608,0.316 -2.148,0.948c-0.541,0.631 -0.811,1.676 -0.811,3.134Z" style="fill-rule:nonzero;"/>
      <path d="M28.986,87.697l0,-14.316l7.373,0c1.367,0 2.412,0.117 3.134,0.351c0.723,0.235 1.306,0.669 1.748,1.304c0.443,0.635 0.664,1.408 0.664,2.319c0,0.795 -0.169,1.48 -0.507,2.056c-0.339,0.576 -0.804,1.043 -1.397,1.401c-0.377,0.228 -0.895,0.417 -1.553,0.567c0.528,0.176 0.912,0.351 1.153,0.527c0.163,0.117 0.399,0.368 0.708,0.752c0.309,0.384 0.516,0.68 0.62,0.889l2.139,4.15l-5,0l-2.364,-4.375c-0.299,-0.566 -0.566,-0.934 -0.8,-1.103c-0.32,-0.222 -0.681,-0.332 -1.084,-0.332l-0.391,0l0,5.81l-4.443,0Zm4.443,-8.515l1.865,0c0.202,0 0.593,-0.066 1.172,-0.196c0.293,-0.058 0.532,-0.208 0.718,-0.449c0.185,-0.241 0.278,-0.518 0.278,-0.83c0,-0.462 -0.146,-0.817 -0.439,-1.065c-0.293,-0.247 -0.843,-0.371 -1.651,-0.371l-1.943,0l0,2.911Z" style="fill-rule:nonzero;"/>
      <path d="M54.626,85.334l-5.039,0l-0.693,2.363l-4.522,0l5.381,-14.316l4.824,0l5.381,14.316l-4.629,0l-0.703,-2.363Zm-0.928,-3.096l-1.582,-5.146l-1.572,5.146l3.154,0Z" style="fill-rule:nonzero;"/>
      <path d="M62.404,73.381l4.131,0l5.39,7.92l0,-7.92l4.17,0l0,14.316l-4.17,0l-5.361,-7.861l0,7.861l-4.16,0l0,-14.316Z" style="fill-rule:nonzero;"/>
      <path d="M86.232,82.512l0,-2.979l6.836,0l0,6.104c-1.309,0.892 -2.466,1.499 -3.472,1.821c-1.005,0.322 -2.199,0.483 -3.579,0.483c-1.699,0 -3.084,-0.289 -4.155,-0.869c-1.071,-0.579 -1.901,-1.442 -2.49,-2.588c-0.589,-1.146 -0.884,-2.461 -0.884,-3.945c0,-1.563 0.322,-2.922 0.967,-4.077c0.644,-1.156 1.588,-2.033 2.832,-2.632c0.97,-0.462 2.275,-0.693 3.916,-0.693c1.582,0 2.765,0.143 3.55,0.429c0.784,0.287 1.435,0.731 1.953,1.333c0.517,0.603 0.906,1.366 1.167,2.29l-4.268,0.762c-0.176,-0.54 -0.473,-0.954 -0.893,-1.24c-0.42,-0.287 -0.956,-0.43 -1.607,-0.43c-0.97,0 -1.743,0.337 -2.319,1.011c-0.576,0.674 -0.864,1.74 -0.864,3.198c0,1.55 0.291,2.656 0.874,3.32c0.582,0.665 1.394,0.997 2.436,0.997c0.495,0 0.967,-0.072 1.416,-0.215c0.449,-0.144 0.964,-0.388 1.543,-0.733l0,-1.347l-2.959,0Z" style="fill-rule:nonzero;"/>
    </g>
    <g>
      <path d="M12.168,92.407l4.131,0l5.391,7.92l0,-7.92l4.17,0l0,14.317l-4.17,0l-5.361,-7.862l0,7.862l-4.161,0l0,-14.317Z" style="fill-rule:nonzero;"/>
      <path d="M38.116,92.407l4.414,0l0,8.535c0,0.847 -0.132,1.646 -0.396,2.398c-0.263,0.752 -0.677,1.409 -1.24,1.972c-0.563,0.564 -1.154,0.959 -1.772,1.187c-0.86,0.319 -1.892,0.479 -3.096,0.479c-0.697,0 -1.457,-0.049 -2.28,-0.147c-0.824,-0.098 -1.512,-0.291 -2.066,-0.581c-0.553,-0.29 -1.059,-0.702 -1.518,-1.235c-0.459,-0.534 -0.773,-1.084 -0.943,-1.651c-0.273,-0.911 -0.41,-1.719 -0.41,-2.422l0,-8.535l4.414,0l0,8.74c0,0.782 0.217,1.392 0.65,1.831c0.433,0.44 1.033,0.66 1.801,0.66c0.762,0 1.359,-0.217 1.792,-0.65c0.433,-0.433 0.65,-1.046 0.65,-1.841l0,-8.74Z" style="fill-rule:nonzero;"/>
      <path d="M45.411,92.407l5.82,0l2.246,8.711l2.236,-8.711l5.801,0l0,14.317l-3.613,0l0,-10.918l-2.803,10.918l-3.271,0l-2.793,-10.918l0,10.918l-3.623,0l0,-14.317Z" style="fill-rule:nonzero;"/>
      <path d="M64.346,92.407l8.281,0c1.381,0 2.44,0.342 3.179,1.026c0.739,0.683 1.109,1.53 1.109,2.539c0,0.846 -0.264,1.572 -0.791,2.177c-0.352,0.404 -0.866,0.723 -1.543,0.957c1.028,0.248 1.785,0.673 2.27,1.275c0.485,0.602 0.728,1.359 0.728,2.27c0,0.743 -0.173,1.41 -0.518,2.002c-0.345,0.593 -0.817,1.061 -1.416,1.407c-0.371,0.214 -0.931,0.371 -1.68,0.468c-0.996,0.131 -1.657,0.196 -1.982,0.196l-7.637,0l0,-14.317Zm4.463,5.615l1.924,0c0.69,0 1.17,-0.118 1.44,-0.356c0.271,-0.238 0.406,-0.581 0.406,-1.03c0,-0.417 -0.135,-0.742 -0.406,-0.977c-0.27,-0.234 -0.74,-0.351 -1.411,-0.351l-1.953,0l0,2.714Zm0,5.625l2.256,0c0.762,0 1.299,-0.135 1.611,-0.405c0.313,-0.27 0.469,-0.633 0.469,-1.089c0,-0.423 -0.155,-0.763 -0.464,-1.02c-0.309,-0.257 -0.851,-0.386 -1.626,-0.386l-2.246,0l0,2.9Z" style="fill-rule:nonzero;"/>
      <path d="M95.292,106.724l0,-14.317l7.374,0c1.367,0 2.412,0.117 3.134,0.352c0.723,0.234 1.306,0.669 1.748,1.303c0.443,0.635 0.664,1.408 0.664,2.32c0,0.794 -0.169,1.479 -0.507,2.055c-0.339,0.577 -0.804,1.044 -1.397,1.402c-0.377,0.228 -0.895,0.417 -1.553,0.566c0.528,0.176 0.912,0.352 1.153,0.528c0.162,0.117 0.398,0.367 0.708,0.752c0.309,0.384 0.516,0.68 0.62,0.888l2.139,4.151l-5,0l-2.364,-4.375c-0.299,-0.567 -0.566,-0.935 -0.801,-1.104c-0.319,-0.221 -0.68,-0.332 -1.084,-0.332l-0.39,0l0,5.811l-4.444,0Zm4.444,-8.516l1.865,0c0.202,0 0.593,-0.065 1.172,-0.195c0.293,-0.059 0.532,-0.209 0.718,-0.45c0.185,-0.24 0.278,-0.517 0.278,-0.83c0,-0.462 -0.146,-0.817 -0.439,-1.064c-0.293,-0.247 -0.844,-0.371 -1.651,-0.371l-1.943,0l0,2.91Z" style="fill-rule:nonzero;"/>
    </g>
    <g>
      <path d="M88.745,95.964l3.952,-0.861c-0.496,-1.465 -1.327,-2.556 -2.492,-3.273c-1.165,-0.716 -2.762,-1.001 -4.791,-0.856c-2.33,0.166 -3.983,0.721 -4.96,1.664c-0.977,0.943 -1.418,2.072 -1.324,3.387c0.055,0.771 0.316,1.454 0.783,2.049c0.466,0.595 1.143,1.097 2.029,1.507c-0.678,0.22 -1.191,0.456 -1.54,0.71c-0.567,0.407 -0.993,0.921 -1.279,1.541c-0.286,0.621 -0.4,1.345 -0.34,2.173c0.074,1.039 0.417,2.016 1.029,2.93c0.612,0.915 1.448,1.594 2.508,2.036c1.059,0.442 2.421,0.604 4.085,0.485c1.624,-0.116 2.891,-0.398 3.801,-0.847c0.91,-0.449 1.228,-0.854 1.78,-1.631c0.553,-0.778 0.837,-2.075 1.082,-3.21l-3.092,-0.431c-0.124,1.012 -1.176,1.875 -1.559,2.29c-0.382,0.415 -1.473,0.755 -2.106,0.801c-0.666,0.047 -1.237,-0.157 -1.714,-0.612c-0.477,-0.455 -0.745,-1.089 -0.803,-1.901c-0.059,-0.828 0.108,-1.484 0.501,-1.969c0.394,-0.485 0.956,-0.754 1.687,-0.806c0.389,-0.028 0.632,-3.252 0.478,-3.241c-0.65,0.047 -1.206,-0.122 -1.67,-0.504c-0.464,-0.383 -0.716,-0.859 -0.757,-1.427c-0.039,-0.544 0.092,-0.99 0.394,-1.338c0.301,-0.348 0.736,-0.542 1.304,-0.583c0.585,-0.041 1.507,0.105 1.898,0.432c0.39,0.327 0.923,0.61 1.116,1.485Z" style="fill-rule:nonzero;"/>
      <path d="M88.745,95.964l3.952,-0.861c-0.496,-1.465 -1.327,-2.556 -2.492,-3.273c-1.165,-0.716 -2.762,-1.001 -4.791,-0.856c-2.33,0.166 -3.983,0.721 -4.96,1.664c-0.977,0.943 -1.418,2.072 -1.324,3.387c0.055,0.771 0.316,1.454 0.783,2.049c0.466,0.595 1.143,1.097 2.029,1.507c-0.678,0.22 -1.191,0.456 -1.54,0.71c-0.567,0.407 -0.993,0.921 -1.279,1.541c-0.286,0.621 -0.4,1.345 -0.34,2.173c0.074,1.039 0.417,2.016 1.029,2.93c0.612,0.915 1.448,1.594 2.508,2.036c1.059,0.442 2.421,0.604 4.085,0.485c1.624,-0.116 2.891,-0.398 3.801,-0.847c0.91,-0.449 1.228,-0.854 1.78,-1.631c0.553,-0.778 0.837,-2.075 1.082,-3.21l-3.092,-0.431c-0.124,1.012 -1.176,1.875 -1.559,2.29c-0.382,0.415 -1.473,0.755 -2.106,0.801c-0.666,0.047 -1.237,-0.157 -1.714,-0.612c-0.477,-0.455 -0.745,-1.089 -0.803,-1.901c-0.059,-0.828 0.108,-1.484 0.501,-1.969c0.394,-0.485 0.956,-0.754 1.687,-0.806c0.389,-0.028 0.632,-3.252 0.478,-3.241c-0.65,0.047 -1.206,-0.122 -1.67,-0.504c-0.464,-0.383 -0.716,-0.859 -0.757,-1.427c-0.039,-0.544 0.092,-0.99 0.394,-1.338c0.301,-0.348 0.736,-0.542 1.304,-0.583c0.585,-0.041 1.507,0.105 1.898,0.432c0.39,0.327 0.923,0.61 1.116,1.485Z" style="fill-rule:nonzero;"/>
      <path d="M104.09,77.424l3.541,-0.701c-0.432,-1.133 -1.165,-1.972 -2.201,-2.518c-1.035,-0.545 -2.461,-0.753 -4.277,-0.623c-2.085,0.149 -3.568,0.593 -4.45,1.333c-0.881,0.74 -1.286,1.619 -1.213,2.638c0.043,0.598 0.271,1.126 0.683,1.583c0.412,0.458 1.013,0.841 1.802,1.152c-0.608,0.176 -1.069,0.364 -1.384,0.564c-0.51,0.321 -0.895,0.723 -1.156,1.206c-0.261,0.484 -0.369,1.047 -0.323,1.688c0.058,0.806 0.356,1.561 0.896,2.265c0.539,0.704 1.281,1.224 2.225,1.558c0.944,0.334 2.16,0.448 3.649,0.341c1.453,-0.104 2.588,-0.334 3.406,-0.689c0.818,-0.356 1.106,-0.673 1.606,-1.281c0.501,-0.608 0.766,-1.616 0.995,-2.499l-2.762,-0.308c-0.119,0.786 -1.068,1.464 -1.413,1.79c-0.346,0.325 -1.324,0.598 -1.89,0.639c-0.596,0.042 -1.105,-0.111 -1.528,-0.46c-0.423,-0.349 -0.657,-0.838 -0.702,-1.468c-0.046,-0.641 0.109,-1.152 0.465,-1.532c0.357,-0.379 0.862,-0.593 1.515,-0.639c0.349,-0.025 0.593,-2.528 0.455,-2.518c-0.581,0.041 -1.077,-0.084 -1.489,-0.377c-0.411,-0.293 -0.633,-0.66 -0.664,-1.101c-0.03,-0.421 0.091,-0.768 0.363,-1.041c0.273,-0.272 0.663,-0.426 1.172,-0.463c0.523,-0.037 1.347,0.069 1.693,0.319c0.346,0.25 0.82,0.465 0.986,1.142Z" style="fill-rule:nonzero;"/>
    </g>
    
  </g>
</svg>
